<?xml version="1.0" encoding="UTF-8" standalone="no" ?>
<!DOCTYPE svg PUBLIC "-//W3C//DTD SVG 1.1//EN" "http://www.w3.org/Graphics/SVG/1.1/DTD/svg11.dtd">
<svg xmlns="http://www.w3.org/2000/svg" xmlns:xlink="http://www.w3.org/1999/xlink" version="1.1" width="1080" height="1080" viewBox="0 0 1080 1080" xml:space="preserve">
<desc>Created with Fabric.js 5.2.4</desc>
<defs>
</defs>
<g transform="matrix(1 0 0 1 540 540)" id="8d6195c1-1379-4270-a9c6-a616812e7603"  >
<rect style="stroke: none; stroke-width: 1; stroke-dasharray: none; stroke-linecap: butt; stroke-dashoffset: 0; stroke-linejoin: miter; stroke-miterlimit: 4; fill: rgb(255,255,255); fill-rule: nonzero; opacity: 1; visibility: hidden;" vector-effect="non-scaling-stroke"  x="-540" y="-540" rx="0" ry="0" width="1080" height="1080" />
</g>
<g transform="matrix(1 0 0 1 540 540)" id="9f130b04-7be0-4dbc-b8ab-3ad4204319b6"  >
</g>
<g transform="matrix(21.46 0 0 21.46 538.71 541.15)" id="79b14328-8898-4a02-ade7-e6137011471c"  >
<path style="stroke: rgb(0,0,0); stroke-width: 0; stroke-dasharray: none; stroke-linecap: butt; stroke-dashoffset: 0; stroke-linejoin: miter; stroke-miterlimit: 4; fill: rgb(0,0,0); fill-rule: nonzero; opacity: 1;" vector-effect="non-scaling-stroke"  transform=" translate(-28.35, -29.78)" d="M 28.347 5.157 C 14.747000000000002 5.157 3.7220000000000013 16.183999999999997 3.7220000000000013 29.782 C 3.7220000000000013 43.382 14.747000000000002 54.405 28.347 54.405 C 41.947 54.405 52.972 43.382000000000005 52.972 29.782 C 52.972 16.184 41.946 5.157 28.347 5.157 z M 34.864 29.679 L 30.599999999999998 29.679 C 30.599999999999998 36.492999999999995 30.599999999999998 44.885999999999996 30.599999999999998 44.885999999999996 L 24.279999999999998 44.885999999999996 C 24.279999999999998 44.885999999999996 24.279999999999998 36.57899999999999 24.279999999999998 29.678999999999995 L 21.273999999999997 29.678999999999995 L 21.273999999999997 24.31 L 24.279999999999998 24.31 L 24.279999999999998 20.831 C 24.279999999999998 18.341 25.461999999999996 14.454 30.659 14.454 L 35.339 14.472000000000001 L 35.339 19.687 C 35.339 19.687 32.492999999999995 19.687 31.941 19.687 C 31.386 19.687 30.601 19.964000000000002 30.601 21.148 L 30.601 24.311 L 35.419 24.311 L 34.864 29.679 z" stroke-linecap="round" />
</g>
</svg>